# MagicaVoxel @ Ephtracy

# group
o 

# material
mtllib Esquina.mtl
usemtl palette

# normals
vn -1 0 0
vn 1 0 0
vn 0 0 1
vn 0 0 -1
vn 0 -1 0
vn 0 1 0

# texcoords
vt 0.00585938 0.5
vt 0.00976563 0.5
vt 0.0136719 0.5
vt 0.0175781 0.5
vt 0.0214844 0.5
vt 0.0253906 0.5
vt 0.0605469 0.5

# verts
v 0 2 0
v 0 2 -3.2
v 0 11.6 0
v 0 11.6 -3.2
v 2.8 4.9 0
v 2.8 4.9 -0.4
v 2.8 4.9 -0.5
v 2.8 6.8 -0.4
v 2.8 6.8 -0.5
v 2.8 6.9 -0.4
v 2.8 6.9 -0.5
v 2.8 9.2 -0.4
v 2.8 9.2 -0.5
v 2.8 9.3 -0.4
v 2.8 9.3 -0.5
v 2.8 10 -0.4
v 2.8 10 -0.5
v 2.8 10.2 -0.4
v 2.8 10.2 -0.5
v 2.8 10.5 -0.3
v 2.8 10.5 -0.4
v 2.8 10.8 -0.2
v 2.8 10.8 -0.3
v 2.8 11 -0.1
v 2.8 11 -0.2
v 2.8 11.6 0
v 2.8 11.6 -0.1
v 2.9 2 0
v 2.9 2 -0.3
v 2.9 3.2 -0.2
v 2.9 3.2 -0.3
v 2.9 3.3 -0.2
v 2.9 3.3 -0.3
v 2.9 3.5 -0.2
v 2.9 3.5 -0.3
v 2.9 3.7 0
v 2.9 3.7 -0.1
v 2.9 3.8 0
v 2.9 3.8 -0.1
v 2.9 4 -0.2
v 2.9 4 -0.3
v 2.9 4.5 0
v 2.9 4.5 -0.3
v 2.9 6.8 -0.4
v 2.9 6.8 -0.5
v 2.9 6.9 -0.4
v 2.9 6.9 -0.5
v 2.9 9.2 -0.4
v 2.9 9.2 -0.5
v 2.9 9.3 -0.4
v 2.9 9.3 -0.5
v 2.9 10.2 -0.4
v 2.9 10.2 -0.5
v 2.9 10.5 -0.3
v 2.9 10.5 -0.4
v 2.9 10.5 -0.5
v 2.9 10.8 -0.2
v 2.9 10.8 -0.3
v 2.9 10.9 -0.3
v 2.9 10.9 -0.4
v 2.9 11 -0.1
v 2.9 11 -0.2
v 2.9 11.1 -0.2
v 2.9 11.1 -0.3
v 2.9 11.2 -0.1
v 2.9 11.2 -0.2
v 3 10.5 -0.4
v 3 10.5 -0.5
v 3 10.8 -0.4
v 3 10.8 -0.5
v 3 10.9 -0.3
v 3 10.9 -0.4
v 3 11.1 -0.2
v 3 11.1 -0.3
v 3 11.1 -0.4
v 3 11.2 -0.1
v 3 11.2 -0.2
v 3 11.6 -0.1
v 3 11.6 -0.3
v 3.1 10.8 -0.4
v 3.1 10.8 -0.5
v 3.1 11 -0.4
v 3.1 11 -0.5
v 3.1 11.1 -0.3
v 3.1 11.1 -0.4
v 3.1 11.2 -0.3
v 3.1 11.2 -0.4
v 3.2 2 -0.3
v 3.2 2 -0.5
v 3.2 2 -3.2
v 3.2 3.7 -0.3
v 3.2 3.7 -0.4
v 3.2 3.8 -0.3
v 3.2 3.8 -0.4
v 3.2 4.5 0
v 3.2 4.5 -0.1
v 3.2 4.5 -0.3
v 3.2 4.6 0
v 3.2 4.6 -0.1
v 3.2 4.7 0
v 3.2 4.7 -0.1
v 3.2 4.8 0
v 3.2 4.8 -0.1
v 3.2 4.8 -0.4
v 3.2 4.8 -0.5
v 3.2 4.9 0
v 3.2 4.9 -0.1
v 3.2 4.9 -0.4
v 3.2 4.9 -0.5
v 3.2 11 -0.4
v 3.2 11 -0.5
v 3.2 11.2 -0.3
v 3.2 11.2 -0.4
v 3.2 11.6 -0.3
v 3.2 11.6 -0.4
v 3.2 11.6 -0.5
v 3.2 11.6 -3.2
v 0 2 0
v 0 11.6 0
v 2.8 2 0
v 2.8 3.7 0
v 2.8 3.8 0
v 2.8 4.9 0
v 2.8 11.6 0
v 2.9 2 0
v 2.9 3.7 0
v 2.9 3.8 0
v 2.9 4.5 0
v 3.1 4.5 0
v 3.1 4.6 0
v 3.1 4.7 0
v 3.1 4.8 0
v 3.1 4.9 0
v 3.2 4.5 0
v 3.2 4.6 0
v 3.2 4.7 0
v 3.2 4.8 0
v 3.2 4.9 0
v 2.8 11 -0.1
v 2.8 11.6 -0.1
v 2.9 11 -0.1
v 2.9 11.2 -0.1
v 2.9 11.6 -0.1
v 3 11.2 -0.1
v 3 11.6 -0.1
v 2.8 10.8 -0.2
v 2.8 11 -0.2
v 2.9 10.8 -0.2
v 2.9 11 -0.2
v 2.9 11.1 -0.2
v 2.9 11.2 -0.2
v 3 11.1 -0.2
v 3 11.2 -0.2
v 2.8 10.5 -0.3
v 2.8 10.8 -0.3
v 2.9 2 -0.3
v 2.9 3.2 -0.3
v 2.9 3.3 -0.3
v 2.9 3.5 -0.3
v 2.9 4 -0.3
v 2.9 4.5 -0.3
v 2.9 10.5 -0.3
v 2.9 10.8 -0.3
v 2.9 10.9 -0.3
v 2.9 11.1 -0.3
v 3 3.2 -0.3
v 3 3.3 -0.3
v 3 3.5 -0.3
v 3 4 -0.3
v 3 10.9 -0.3
v 3 11.1 -0.3
v 3 11.6 -0.3
v 3.1 3.7 -0.3
v 3.1 3.8 -0.3
v 3.1 11.1 -0.3
v 3.1 11.2 -0.3
v 3.2 2 -0.3
v 3.2 3.7 -0.3
v 3.2 3.8 -0.3
v 3.2 4.5 -0.3
v 3.2 11.2 -0.3
v 3.2 11.6 -0.3
v 2.8 6.8 -0.4
v 2.8 6.9 -0.4
v 2.8 9.2 -0.4
v 2.8 9.3 -0.4
v 2.8 10.2 -0.4
v 2.8 10.5 -0.4
v 2.9 6.8 -0.4
v 2.9 6.9 -0.4
v 2.9 9.2 -0.4
v 2.9 9.3 -0.4
v 2.9 10.2 -0.4
v 2.9 10.5 -0.4
v 2.9 10.9 -0.4
v 3 10.5 -0.4
v 3 10.8 -0.4
v 3 10.9 -0.4
v 3 11.1 -0.4
v 3.1 10.8 -0.4
v 3.1 11 -0.4
v 3.1 11.1 -0.4
v 3.1 11.2 -0.4
v 3.2 11 -0.4
v 3.2 11.2 -0.4
v 2.8 4.9 -0.5
v 2.8 6.8 -0.5
v 2.8 6.9 -0.5
v 2.8 9.2 -0.5
v 2.8 9.3 -0.5
v 2.8 10 -0.5
v 2.8 10.2 -0.5
v 2.9 6.8 -0.5
v 2.9 6.9 -0.5
v 2.9 9.2 -0.5
v 2.9 9.3 -0.5
v 2.9 10.2 -0.5
v 2.9 10.5 -0.5
v 3 10.5 -0.5
v 3 10.8 -0.5
v 3.1 10.8 -0.5
v 3.1 11 -0.5
v 3.2 4.9 -0.5
v 3.2 11 -0.5
v 0 2 -3.2
v 0 11.6 -3.2
v 3.2 2 -3.2
v 3.2 11.6 -3.2
v 0 2 0
v 2.8 2 0
v 2.9 2 0
v 2.8 2 -0.3
v 2.9 2 -0.3
v 3.2 2 -0.3
v 2.8 2 -0.4
v 2.9 2 -0.4
v 2.8 2 -0.5
v 3.2 2 -0.5
v 0 2 -3.2
v 3.2 2 -3.2
v 2.9 4.5 0
v 3.1 4.5 0
v 3.2 4.5 0
v 3.1 4.5 -0.1
v 3.2 4.5 -0.1
v 2.9 4.5 -0.3
v 3.2 4.5 -0.3
v 2.8 6.8 -0.4
v 2.9 6.8 -0.4
v 2.8 6.8 -0.5
v 2.9 6.8 -0.5
v 2.8 9.2 -0.4
v 2.9 9.2 -0.4
v 2.8 9.2 -0.5
v 2.9 9.2 -0.5
v 2.8 10.2 -0.4
v 2.9 10.2 -0.4
v 2.8 10.2 -0.5
v 2.9 10.2 -0.5
v 2.8 10.5 -0.3
v 2.9 10.5 -0.3
v 2.8 10.5 -0.4
v 2.9 10.5 -0.4
v 3 10.5 -0.4
v 2.9 10.5 -0.5
v 3 10.5 -0.5
v 2.8 10.8 -0.2
v 2.9 10.8 -0.2
v 2.8 10.8 -0.3
v 2.9 10.8 -0.3
v 3 10.8 -0.4
v 3.1 10.8 -0.4
v 3 10.8 -0.5
v 3.1 10.8 -0.5
v 2.9 10.9 -0.3
v 3 10.9 -0.3
v 2.9 10.9 -0.4
v 3 10.9 -0.4
v 2.8 11 -0.1
v 2.9 11 -0.1
v 2.8 11 -0.2
v 2.9 11 -0.2
v 3.1 11 -0.4
v 3.2 11 -0.4
v 3.1 11 -0.5
v 3.2 11 -0.5
v 2.9 11.1 -0.2
v 3 11.1 -0.2
v 2.9 11.1 -0.3
v 3 11.1 -0.3
v 3.1 11.1 -0.3
v 3 11.1 -0.4
v 3.1 11.1 -0.4
v 2.9 11.2 -0.1
v 3 11.2 -0.1
v 2.9 11.2 -0.2
v 3 11.2 -0.2
v 3.1 11.2 -0.3
v 3.2 11.2 -0.3
v 3.1 11.2 -0.4
v 3.2 11.2 -0.4
v 2.8 4.9 0
v 3.1 4.9 0
v 3.2 4.9 0
v 3.1 4.9 -0.1
v 3.2 4.9 -0.1
v 2.8 4.9 -0.4
v 3.2 4.9 -0.4
v 2.8 4.9 -0.5
v 3.2 4.9 -0.5
v 2.8 6.9 -0.4
v 2.9 6.9 -0.4
v 2.8 6.9 -0.5
v 2.9 6.9 -0.5
v 2.8 9.3 -0.4
v 2.9 9.3 -0.4
v 2.8 9.3 -0.5
v 2.9 9.3 -0.5
v 0 11.6 0
v 2.8 11.6 0
v 2.8 11.6 -0.1
v 2.9 11.6 -0.1
v 3 11.6 -0.1
v 3 11.6 -0.3
v 3.2 11.6 -0.3
v 2.9 11.6 -0.4
v 3.2 11.6 -0.4
v 2.8 11.6 -0.5
v 3.2 11.6 -0.5
v 0 11.6 -3.2
v 3.2 11.6 -3.2

# faces
f 3/2/1 2/2/1 1/2/1
f 4/2/1 2/2/1 3/2/1
f 5/2/2 6/2/2 8/2/2
f 6/2/2 7/2/2 8/2/2
f 8/2/2 7/2/2 9/2/2
f 5/2/2 8/2/2 10/2/2
f 5/2/2 10/2/2 12/2/2
f 10/2/2 11/2/2 12/2/2
f 12/2/2 11/2/2 13/2/2
f 5/2/2 12/2/2 14/2/2
f 5/2/2 14/2/2 16/2/2
f 14/2/2 15/2/2 16/2/2
f 16/2/2 15/2/2 17/2/2
f 5/2/2 16/2/2 18/2/2
f 16/1/2 17/1/2 18/1/2
f 18/1/2 17/1/2 19/1/2
f 5/2/2 18/2/2 20/2/2
f 20/2/2 18/2/2 21/2/2
f 5/2/2 20/2/2 22/2/2
f 22/2/2 20/2/2 23/2/2
f 5/2/2 22/2/2 24/2/2
f 24/2/2 22/2/2 25/2/2
f 5/2/2 24/2/2 26/2/2
f 26/2/2 24/2/2 27/2/2
f 28/3/2 29/3/2 30/3/2
f 30/3/2 29/3/2 31/3/2
f 28/3/2 30/3/2 32/3/2
f 30/7/2 31/7/2 32/7/2
f 32/7/2 31/7/2 33/7/2
f 28/3/2 32/3/2 34/3/2
f 32/3/2 33/3/2 34/3/2
f 34/3/2 33/3/2 35/3/2
f 28/3/2 34/3/2 36/3/2
f 36/3/2 34/3/2 37/3/2
f 36/7/2 37/7/2 38/7/2
f 37/3/2 34/3/2 39/3/2
f 38/7/2 37/7/2 39/7/2
f 34/7/2 35/7/2 40/7/2
f 39/3/2 34/3/2 40/3/2
f 38/3/2 39/3/2 40/3/2
f 40/7/2 35/7/2 41/7/2
f 38/3/2 40/3/2 42/3/2
f 40/3/2 41/3/2 42/3/2
f 42/3/2 41/3/2 43/3/2
f 44/6/2 45/6/2 46/6/2
f 46/6/2 45/6/2 47/6/2
f 48/6/2 49/6/2 50/6/2
f 50/6/2 49/6/2 51/6/2
f 52/1/2 53/1/2 55/1/2
f 55/1/2 53/1/2 56/1/2
f 54/1/2 55/1/2 58/1/2
f 58/1/2 55/1/2 59/1/2
f 57/1/2 58/1/2 59/1/2
f 59/1/2 55/1/2 60/1/2
f 57/1/2 59/1/2 62/1/2
f 62/1/2 59/1/2 63/1/2
f 61/1/2 62/1/2 63/1/2
f 63/1/2 59/1/2 64/1/2
f 61/1/2 63/1/2 65/1/2
f 65/1/2 63/1/2 66/1/2
f 67/1/2 68/1/2 69/1/2
f 69/1/2 68/1/2 70/1/2
f 71/5/2 72/5/2 74/5/2
f 74/5/2 72/5/2 75/5/2
f 73/5/2 74/5/2 77/5/2
f 76/5/2 77/5/2 78/5/2
f 77/5/2 74/5/2 79/5/2
f 78/5/2 77/5/2 79/5/2
f 80/1/2 81/1/2 82/1/2
f 82/1/2 81/1/2 83/1/2
f 84/5/2 85/5/2 86/5/2
f 86/5/2 85/5/2 87/5/2
f 88/3/2 89/3/2 91/3/2
f 91/3/2 89/3/2 92/3/2
f 91/7/2 92/7/2 93/7/2
f 92/3/2 89/3/2 94/3/2
f 93/7/2 92/7/2 94/7/2
f 93/3/2 94/3/2 97/3/2
f 95/4/2 96/4/2 98/4/2
f 96/3/2 97/3/2 99/3/2
f 98/4/2 96/4/2 99/4/2
f 98/7/2 99/7/2 100/7/2
f 99/3/2 97/3/2 101/3/2
f 100/7/2 99/7/2 101/7/2
f 100/3/2 101/3/2 102/3/2
f 101/3/2 97/3/2 103/3/2
f 102/3/2 101/3/2 103/3/2
f 94/3/2 89/3/2 104/3/2
f 103/3/2 97/3/2 104/3/2
f 97/3/2 94/3/2 104/3/2
f 89/2/2 90/2/2 105/2/2
f 104/3/2 89/3/2 105/3/2
f 102/4/2 103/4/2 106/4/2
f 103/3/2 104/3/2 107/3/2
f 106/4/2 103/4/2 107/4/2
f 104/7/2 105/7/2 108/7/2
f 107/3/2 104/3/2 108/3/2
f 105/2/2 90/2/2 109/2/2
f 108/7/2 105/7/2 109/7/2
f 109/2/2 90/2/2 111/2/2
f 110/1/2 111/1/2 113/1/2
f 112/5/2 113/5/2 114/5/2
f 113/1/2 111/1/2 115/1/2
f 114/5/2 113/5/2 115/5/2
f 111/2/2 90/2/2 116/2/2
f 115/1/2 111/1/2 116/1/2
f 116/2/2 90/2/2 117/2/2
f 120/2/3 119/2/3 118/2/3
f 121/2/3 119/2/3 120/2/3
f 122/2/3 119/2/3 121/2/3
f 123/2/3 119/2/3 122/2/3
f 124/2/3 119/2/3 123/2/3
f 125/3/3 121/3/3 120/3/3
f 126/7/3 122/7/3 121/7/3
f 126/3/3 121/3/3 125/3/3
f 127/3/3 123/3/3 122/3/3
f 127/7/3 122/7/3 126/7/3
f 128/3/3 123/3/3 127/3/3
f 129/3/3 123/3/3 128/3/3
f 130/3/3 123/3/3 129/3/3
f 131/3/3 123/3/3 130/3/3
f 132/3/3 123/3/3 131/3/3
f 133/3/3 123/3/3 132/3/3
f 134/4/3 130/4/3 129/4/3
f 135/7/3 131/7/3 130/7/3
f 135/4/3 130/4/3 134/4/3
f 136/3/3 132/3/3 131/3/3
f 136/7/3 131/7/3 135/7/3
f 137/4/3 133/4/3 132/4/3
f 137/3/3 132/3/3 136/3/3
f 138/4/3 133/4/3 137/4/3
f 141/1/3 140/1/3 139/1/3
f 142/1/3 140/1/3 141/1/3
f 143/1/3 140/1/3 142/1/3
f 144/5/3 143/5/3 142/5/3
f 145/5/3 143/5/3 144/5/3
f 148/1/3 147/1/3 146/1/3
f 149/1/3 147/1/3 148/1/3
f 152/5/3 151/5/3 150/5/3
f 153/5/3 151/5/3 152/5/3
f 162/1/3 155/1/3 154/1/3
f 163/1/3 155/1/3 162/1/3
f 166/3/3 157/3/3 156/3/3
f 166/7/3 158/7/3 157/7/3
f 167/3/3 159/3/3 158/3/3
f 167/7/3 158/7/3 166/7/3
f 168/7/3 160/7/3 159/7/3
f 168/3/3 159/3/3 167/3/3
f 169/3/3 161/3/3 160/3/3
f 169/7/3 160/7/3 168/7/3
f 170/5/3 165/5/3 164/5/3
f 171/5/3 165/5/3 170/5/3
f 173/3/3 168/3/3 167/3/3
f 173/3/3 167/3/3 166/3/3
f 173/3/3 169/3/3 168/3/3
f 174/3/3 169/3/3 173/3/3
f 175/5/3 172/5/3 171/5/3
f 176/5/3 172/5/3 175/5/3
f 177/3/3 166/3/3 156/3/3
f 177/3/3 173/3/3 166/3/3
f 178/7/3 174/7/3 173/7/3
f 178/3/3 173/3/3 177/3/3
f 179/3/3 169/3/3 174/3/3
f 179/7/3 174/7/3 178/7/3
f 180/3/3 161/3/3 169/3/3
f 180/3/3 169/3/3 179/3/3
f 181/5/3 172/5/3 176/5/3
f 182/5/3 172/5/3 181/5/3
f 189/6/3 184/6/3 183/6/3
f 190/6/3 184/6/3 189/6/3
f 191/6/3 186/6/3 185/6/3
f 192/6/3 186/6/3 191/6/3
f 193/1/3 188/1/3 187/1/3
f 194/1/3 188/1/3 193/1/3
f 196/1/3 195/1/3 194/1/3
f 197/1/3 195/1/3 196/1/3
f 198/1/3 195/1/3 197/1/3
f 200/1/3 199/1/3 198/1/3
f 200/1/3 198/1/3 197/1/3
f 201/1/3 199/1/3 200/1/3
f 202/1/3 199/1/3 201/1/3
f 204/1/3 203/1/3 202/1/3
f 204/1/3 202/1/3 201/1/3
f 205/1/3 203/1/3 204/1/3
f 213/2/3 207/2/3 206/2/3
f 214/2/3 209/2/3 208/2/3
f 215/2/3 209/2/3 214/2/3
f 216/2/3 212/2/3 211/2/3
f 216/2/3 211/2/3 210/2/3
f 217/2/3 212/2/3 216/2/3
f 219/2/3 215/2/3 214/2/3
f 219/2/3 218/2/3 217/2/3
f 219/2/3 217/2/3 216/2/3
f 219/2/3 216/2/3 215/2/3
f 219/2/3 214/2/3 213/2/3
f 221/2/3 220/2/3 219/2/3
f 223/2/3 213/2/3 206/2/3
f 223/2/3 222/2/3 221/2/3
f 223/2/3 221/2/3 219/2/3
f 223/2/3 219/2/3 213/2/3
f 224/2/3 222/2/3 223/2/3
f 225/2/4 226/2/4 227/2/4
f 227/2/4 226/2/4 228/2/4
f 232/2/5 230/2/5 229/2/5
f 232/3/5 231/3/5 230/3/5
f 233/3/5 231/3/5 232/3/5
f 235/2/5 232/2/5 229/2/5
f 235/4/5 233/4/5 232/4/5
f 236/3/5 234/3/5 233/3/5
f 236/4/5 233/4/5 235/4/5
f 237/2/5 235/2/5 229/2/5
f 237/3/5 236/3/5 235/3/5
f 238/3/5 234/3/5 236/3/5
f 238/3/5 236/3/5 237/3/5
f 239/2/5 237/2/5 229/2/5
f 239/2/5 238/2/5 237/2/5
f 240/2/5 238/2/5 239/2/5
f 244/3/5 242/3/5 241/3/5
f 244/4/5 243/4/5 242/4/5
f 245/4/5 243/4/5 244/4/5
f 246/3/5 244/3/5 241/3/5
f 246/3/5 245/3/5 244/3/5
f 247/3/5 245/3/5 246/3/5
f 250/6/5 249/6/5 248/6/5
f 251/6/5 249/6/5 250/6/5
f 254/6/5 253/6/5 252/6/5
f 255/6/5 253/6/5 254/6/5
f 258/1/5 257/1/5 256/1/5
f 259/1/5 257/1/5 258/1/5
f 262/1/5 261/1/5 260/1/5
f 263/1/5 261/1/5 262/1/5
f 265/1/5 264/1/5 263/1/5
f 266/1/5 264/1/5 265/1/5
f 269/1/5 268/1/5 267/1/5
f 270/1/5 268/1/5 269/1/5
f 273/1/5 272/1/5 271/1/5
f 274/1/5 272/1/5 273/1/5
f 277/5/5 276/5/5 275/5/5
f 278/5/5 276/5/5 277/5/5
f 281/1/5 280/1/5 279/1/5
f 282/1/5 280/1/5 281/1/5
f 285/1/5 284/1/5 283/1/5
f 286/1/5 284/1/5 285/1/5
f 289/5/5 288/5/5 287/5/5
f 290/5/5 288/5/5 289/5/5
f 292/5/5 291/5/5 290/5/5
f 293/5/5 291/5/5 292/5/5
f 296/5/5 295/5/5 294/5/5
f 297/5/5 295/5/5 296/5/5
f 300/5/5 299/5/5 298/5/5
f 301/5/5 299/5/5 300/5/5
f 302/3/6 303/3/6 305/3/6
f 303/4/6 304/4/6 305/4/6
f 305/4/6 304/4/6 306/4/6
f 302/3/6 305/3/6 307/3/6
f 305/3/6 306/3/6 307/3/6
f 307/3/6 306/3/6 308/3/6
f 307/7/6 308/7/6 309/7/6
f 309/7/6 308/7/6 310/7/6
f 311/6/6 312/6/6 313/6/6
f 313/6/6 312/6/6 314/6/6
f 315/6/6 316/6/6 317/6/6
f 317/6/6 316/6/6 318/6/6
f 319/2/6 320/2/6 321/2/6
f 322/5/6 323/5/6 324/5/6
f 321/1/6 322/1/6 326/1/6
f 324/5/6 325/5/6 326/5/6
f 322/5/6 324/5/6 326/5/6
f 326/5/6 325/5/6 327/5/6
f 319/2/6 321/2/6 328/2/6
f 321/1/6 326/1/6 328/1/6
f 326/1/6 327/1/6 328/1/6
f 328/1/6 327/1/6 329/1/6
f 319/2/6 328/2/6 330/2/6
f 328/2/6 329/2/6 330/2/6
f 330/2/6 329/2/6 331/2/6
